<svg xmlns="http://www.w3.org/2000/svg" width="512" height="512" viewBox="0 0 512 512">
  <g>
  <path d="M 0.00 0.00 L 512.00 0.00 L 512.00 512.00 L 0.00 512.00 ZM 150.00 327.18 C150.82,327.55 159.00,327.89 168.17,327.93 C184.75,328.00 184.87,327.98 187.96,325.38 C189.02,324.49 189.89,323.83 190.61,323.03 C194.01,319.26 194.01,312.43 194.00,264.12 C194.00,261.82 194.00,259.44 194.00,256.95 C194.00,255.56 194.00,254.20 194.00,252.87 C194.00,200.63 194.00,193.06 190.24,189.68 C189.51,189.02 188.63,188.52 187.58,187.89 C184.87,186.24 182.35,186.01 166.83,186.00 C149.22,186.00 149.14,186.01 146.04,188.62 C144.98,189.51 144.10,190.18 143.38,190.98 C139.99,194.75 139.99,201.57 140.00,249.51 C140.00,251.77 140.00,254.11 140.00,256.55 C140.00,308.94 140.19,316.60 141.59,319.54 C143.04,322.60 146.17,325.44 150.00,327.18 ZM 329.24 326.01 C332.15,327.78 334.30,327.99 349.10,328.00 C364.68,328.00 365.91,327.86 369.00,325.75 C370.81,324.51 373.13,321.93 374.15,320.02 C375.89,316.74 376.00,313.03 376.00,257.23 C376.00,200.17 375.93,197.77 374.03,194.05 C370.10,186.36 368.98,186.00 349.21,186.00 C331.97,186.00 331.64,186.04 328.34,188.55 C327.20,189.42 326.26,190.06 325.49,190.86 C321.99,194.49 321.99,201.50 322.00,249.74 C322.00,252.13 322.00,254.61 322.00,257.20 C322.01,315.61 322.07,317.60 323.99,320.76 C325.09,322.55 327.45,324.91 329.24,326.01 ZM 200.20 273.80 C201.10,274.70 215.28,275.00 257.87,275.00 C309.02,275.00 314.52,274.84 316.17,273.35 C317.78,271.89 318.00,269.96 318.00,257.07 C318.00,245.45 317.68,241.99 316.44,240.22 L 314.89 238.00 L 258.88 238.00 C222.18,238.00 202.20,238.36 200.93,239.04 C199.14,239.99 199.00,241.28 199.00,256.34 C199.00,267.65 199.37,272.97 200.20,273.80 ZM 121.07 279.37 C122.69,281.43 124.02,282.00 127.14,282.00 C127.41,282.00 127.67,282.00 127.92,282.00 C130.14,282.01 131.67,282.02 132.72,281.31 C135.01,279.77 135.01,274.82 135.00,259.04 C135.00,258.22 135.00,257.38 135.00,256.50 C135.00,234.36 134.89,233.01 133.07,232.04 C128.04,229.34 120.68,231.62 119.35,236.29 C118.73,238.45 117.63,239.59 115.67,240.11 C110.26,241.56 110.00,242.27 110.00,255.54 C110.00,262.30 110.28,268.57 110.62,269.46 C110.97,270.35 112.99,271.98 115.12,273.06 C117.26,274.15 119.00,275.42 119.00,275.89 C119.00,276.35 119.93,277.92 121.07,279.37 ZM 383.31 280.99 C388.99,283.28 395.20,281.27 396.35,276.77 C396.68,275.50 398.60,273.62 400.72,272.50 L 404.50 270.50 L 404.78 256.64 C405.07,241.95 404.58,240.00 400.58,240.00 C397.95,240.00 396.00,238.23 396.00,235.86 C396.00,234.90 395.00,233.41 393.78,232.56 C391.43,230.91 384.38,230.47 382.23,231.84 C381.30,232.43 380.81,238.14 380.41,253.04 C379.78,276.21 380.15,279.72 383.31,280.99 Z" fill="rgb(5,38,78)"/>
  <path d="M 192.50 319.32 C191.81,319.36 189.71,320.52 187.45,322.14 L 182.77 325.50 L 167.64 325.69 C149.26,325.93 146.03,324.99 143.44,318.62 C141.93,314.92 141.77,308.65 141.85,257.22 C141.91,220.62 142.32,198.53 142.99,196.04 C144.74,189.53 148.95,187.68 163.15,187.18 C169.61,186.95 177.28,187.07 180.20,187.45 C184.95,188.07 185.81,188.57 188.50,192.32 L 191.50 196.50 L 191.77 257.25 C191.93,292.88 192.33,314.39 192.88,317.58 C192.76,318.23 192.64,318.81 192.50,319.32 ZM 362.91 325.64 C358.11,326.88 338.73,327.25 335.50,326.16 C330.62,324.53 327.13,321.81 325.38,318.29 C323.59,314.69 323.52,311.68 323.82,257.00 C324.01,222.68 324.54,198.21 325.13,196.30 C325.67,194.54 327.75,191.67 329.75,189.91 L 333.38 186.73 L 349.16 187.23 C366.92,187.80 368.99,188.49 371.79,194.83 C373.20,198.03 373.43,204.70 373.59,247.00 C373.69,273.67 373.53,300.82 373.24,307.32 C372.74,318.48 372.56,319.29 370.02,321.82 C368.54,323.29 365.34,325.01 362.91,325.64 ZM 312.29 272.08 C309.58,273.11 209.28,273.15 204.50,272.12 L 201.50 271.47 L 201.50 257.27 C201.50,244.95 201.74,242.83 203.29,241.28 C204.97,239.61 208.37,239.51 257.79,239.73 C286.78,239.86 311.46,240.19 312.63,240.47 C315.52,241.16 316.33,247.01 315.42,260.60 C314.76,270.55 314.58,271.21 312.29,272.08 ZM 403.76 256.00 C404.26,257.70 404.59,255.96 404.80,250.58 C404.81,250.05 404.83,249.54 404.84,249.06 C404.87,251.10 404.84,253.60 404.78,256.64 L 404.59 266.22 C404.10,265.74 403.08,266.49 402.04,268.43 C401.32,269.77 399.42,271.41 397.82,272.07 C396.22,272.74 394.24,274.57 393.43,276.14 C392.29,278.34 391.24,279.00 388.91,279.00 C387.24,279.00 385.00,278.53 383.93,277.96 C382.12,276.99 382.00,275.67 382.00,256.00 C382.00,236.33 382.12,235.01 383.93,234.04 C387.29,232.24 389.74,232.89 393.14,236.50 C394.95,238.43 396.88,240.00 397.42,240.00 C397.96,240.00 397.86,239.46 397.20,238.80 C397.01,238.61 396.83,238.36 396.67,238.08 C397.45,239.26 398.87,240.00 400.58,240.00 C400.92,240.00 401.23,240.01 401.52,240.05 C401.22,240.05 400.90,240.08 400.55,240.15 C399.05,240.46 399.09,240.74 400.94,242.71 C402.35,244.22 403.00,246.26 403.01,249.21 C403.02,251.57 403.36,254.62 403.76,256.00 ZM 130.99 278.03 C128.34,279.70 126.08,279.07 122.18,275.54 C120.07,273.64 117.14,271.62 115.66,271.06 C111.88,269.62 111.12,266.77 111.51,255.42 C111.85,245.59 111.87,245.50 115.18,242.78 C117.00,241.27 119.88,238.64 121.57,236.94 C125.47,233.01 130.72,233.04 132.71,237.00 C135.13,241.80 133.68,276.33 130.99,278.03 ZM 193.56 310.69 C193.85,301.29 194.00,283.06 194.00,257.40 C194.00,259.72 194.00,261.96 194.00,264.12 L 194.00 264.12 C194.00,288.68 194.01,302.52 193.56,310.69 ZM 187.34 325.90 L 189.26 323.98 C190.38,322.86 191.32,321.78 191.95,320.94 C191.57,321.80 191.13,322.45 190.61,323.03 C189.89,323.83 189.02,324.49 187.96,325.38 C187.74,325.57 187.53,325.74 187.34,325.90 ZM 404.50 270.50 L 400.81 272.45 C402.64,271.47 403.96,270.28 404.53,269.15 ZM 168.17 327.93 C159.01,327.89 150.84,327.55 150.00,327.18 C150.84,327.55 159.10,327.89 168.37,327.93 L 171.26 327.94 C170.30,327.94 169.27,327.93 168.17,327.93 Z" fill="rgb(8,242,194)"/>
  <path d="M 150.00 327.18 C146.17,325.44 143.04,322.60 141.59,319.54 C140.19,316.60 140.00,308.94 140.00,256.55 C140.00,191.17 139.76,193.91 146.04,188.62 C149.14,186.01 149.22,186.00 166.83,186.00 C182.35,186.01 184.87,186.24 187.58,187.89 C194.14,191.89 194.00,190.33 194.00,257.40 C194.00,296.20 193.65,318.00 193.02,318.00 C192.40,318.00 191.95,295.96 191.77,257.25 L 191.50 196.50 L 188.50 192.32 C185.81,188.57 184.95,188.07 180.20,187.45 C177.28,187.07 169.61,186.95 163.15,187.18 C148.95,187.68 144.74,189.53 142.99,196.04 C142.32,198.53 141.91,220.62 141.85,257.22 C141.77,308.65 141.93,314.92 143.44,318.62 C146.03,324.99 149.26,325.93 167.64,325.69 L 182.77 325.50 L 187.45 322.14 C190.02,320.30 192.38,319.05 192.70,319.37 C193.02,319.69 191.47,321.76 189.26,323.98 L 185.24 328.00 L 168.37 327.93 C159.09,327.89 150.82,327.55 150.00,327.18 ZM 329.24 326.01 C327.45,324.91 325.09,322.55 323.99,320.76 C322.07,317.60 322.01,315.61 322.00,257.20 C322.00,190.70 321.73,193.59 328.34,188.55 C331.64,186.04 331.97,186.00 349.21,186.00 C368.98,186.00 370.10,186.36 374.03,194.05 C375.93,197.77 376.00,200.17 376.00,257.23 C376.00,313.03 375.89,316.74 374.15,320.02 C373.13,321.93 370.81,324.51 369.00,325.75 C365.91,327.86 364.68,328.00 349.10,328.00 C334.30,327.99 332.15,327.78 329.24,326.01 ZM 362.91 325.64 C365.34,325.01 368.54,323.29 370.02,321.82 C372.56,319.29 372.74,318.48 373.24,307.32 C373.53,300.82 373.69,273.67 373.59,247.00 C373.43,204.70 373.20,198.03 371.79,194.83 C368.99,188.49 366.92,187.80 349.16,187.23 L 333.38 186.73 L 329.75 189.91 C327.75,191.67 325.67,194.54 325.13,196.30 C324.54,198.21 324.01,222.68 323.82,257.00 C323.52,311.68 323.59,314.69 325.38,318.29 C327.13,321.81 330.62,324.53 335.50,326.16 C338.73,327.25 358.11,326.88 362.91,325.64 ZM 121.07 279.37 C119.93,277.92 119.00,276.35 119.00,275.89 C119.00,275.42 117.26,274.15 115.12,273.06 C112.99,271.98 110.97,270.35 110.62,269.46 C110.28,268.57 110.00,262.30 110.00,255.54 C110.00,242.27 110.26,241.56 115.67,240.11 C117.63,239.59 118.73,238.45 119.35,236.29 C120.68,231.62 128.04,229.34 133.07,232.04 C134.89,233.01 135.00,234.36 135.00,256.50 C135.00,282.90 135.28,282.00 127.14,282.00 C124.02,282.00 122.69,281.43 121.07,279.37 ZM 130.99 278.03 C133.68,276.33 135.13,241.80 132.71,237.00 C130.72,233.04 125.47,233.01 121.57,236.94 C119.88,238.64 117.00,241.27 115.18,242.78 C111.87,245.50 111.85,245.59 111.51,255.42 C111.12,266.77 111.88,269.62 115.66,271.06 C117.14,271.62 120.07,273.64 122.18,275.54 C126.08,279.07 128.34,279.70 130.99,278.03 ZM 383.31 280.99 C380.15,279.72 379.78,276.21 380.41,253.04 C380.81,238.14 381.30,232.43 382.23,231.84 C384.38,230.47 391.43,230.91 393.78,232.56 C395.00,233.41 396.00,234.90 396.00,235.86 C396.00,236.82 396.54,238.14 397.20,238.80 C397.86,239.46 397.96,240.00 397.42,240.00 C396.88,240.00 394.95,238.43 393.14,236.50 C389.74,232.89 387.29,232.24 383.93,234.04 C382.12,235.01 382.00,236.33 382.00,256.00 C382.00,275.67 382.12,276.99 383.93,277.96 C385.00,278.53 387.24,279.00 388.91,279.00 C391.24,279.00 392.29,278.34 393.43,276.14 C394.24,274.57 396.22,272.74 397.82,272.07 C399.42,271.41 401.32,269.77 402.04,268.43 C403.67,265.38 405.24,265.28 404.82,268.25 C404.62,269.66 403.09,271.25 400.72,272.50 C398.60,273.62 396.68,275.50 396.35,276.77 C395.20,281.27 388.99,283.28 383.31,280.99 ZM 200.20 273.80 C199.37,272.97 199.00,267.65 199.00,256.34 C199.00,241.28 199.14,239.99 200.93,239.04 C202.20,238.36 222.18,238.00 258.88,238.00 L 314.89 238.00 L 316.44 240.22 C317.68,241.99 318.00,245.45 318.00,257.07 C318.00,269.96 317.78,271.89 316.17,273.35 C314.52,274.84 309.02,275.00 257.87,275.00 C215.28,275.00 201.10,274.70 200.20,273.80 ZM 312.29 272.08 C314.58,271.21 314.76,270.55 315.42,260.60 C316.33,247.01 315.52,241.16 312.63,240.47 C311.46,240.19 286.78,239.86 257.79,239.73 C208.37,239.51 204.97,239.61 203.29,241.28 C201.74,242.83 201.50,244.95 201.50,257.27 L 201.50 271.47 L 204.50 272.12 C209.28,273.15 309.58,273.11 312.29,272.08 ZM 403.76 256.00 C403.36,254.62 403.02,251.57 403.01,249.21 C403.00,246.26 402.35,244.22 400.94,242.71 C399.09,240.74 399.05,240.46 400.55,240.15 C403.98,239.45 405.11,242.21 404.80,250.58 C404.59,255.96 404.26,257.70 403.76,256.00 Z" fill="rgb(33,213,189)"/>
  </g>
</svg>
