<svg xmlns="http://www.w3.org/2000/svg" width="32" height="32" viewBox="0 0 24 24" fill="none" stroke="#a855f7" stroke-width="2" stroke-linecap="round" stroke-linejoin="round">
  <path d="M17.3 7.7a2.5 2.5 0 1 1 1.4 1.4"/>
  <path d="M17.3 16.3a2.5 2.5 0 1 0 1.4-1.4"/>
  <path d="M6.7 7.7a2.5 2.5 0 1 0-1.4 1.4"/>
  <path d="M6.7 16.3a2.5 2.5 0 1 1-1.4-1.4"/>
  <path d="M6.7 7.7 17.3 16.3"/>
  <path d="M3.5 9a2.5 2.5 0 0 1 0-5 2.5 2.5 0 0 1 0 5"/>
  <path d="M20.5 20a2.5 2.5 0 0 0 0-5 2.5 2.5 0 0 0 0 5"/>
  <path d="m14.5 17.5 2-2"/>
  <path d="m7.5 6.5 2 2"/>
</svg>